P3
64 48
255
48 99 191 48 102 197 44 105 203 39 109 205 38 110 207 38 111 210 39 
112 213 39 113 213 41 112 211 41 113 213 41 114 214 41 115 214 39 116 
215 42 116 213 42 118 214 43 118 216 42 120 214 46 119 213 47 120 215 
48 122 217 50 126 218 48 116 208 51 123 214 57 130 221 51 107 193 50 
94 169 60 127 208 58 112 192 59 98 167 62 108 180 52 101 182 59 132 
217 49 110 196 53 121 211 48 114 206 47 120 213 43 118 212 43 117 212 
44 119 213 43 121 214 42 121 214 43 120 216 43 122 217 43 124 217 41 
124 218 41 124 218 42 123 217 42 122 216 42 121 218 42 121 216 41 120 
217 39 120 219 40 120 217 41 119 217 42 120 218 40 120 217 40 119 217 
41 120 216 40 118 215 42 118 216 41 116 217 39 116 216 39 113 215 40 
112 214 46 103 193 47 106 200 43 108 204 40 111 206 38 112 209 39 113 
211 39 113 212 39 113 212 40 114 213 40 114 213 41 116 214 41 117 214 
38 119 216 41 119 214 44 122 214 48 120 212 45 121 215 52 130 220 45 
121 212 57 135 224 62 128 200 56 99 162 67 126 199 63 134 212 61 123 
201 64 99 167 65 120 197 55 101 173 62 93 149 63 101 161 64 114 191 
64 127 208 53 106 185 47 91 165 54 117 205 51 123 212 44 121 212 43 
120 212 43 120 213 42 121 214 43 122 215 43 122 216 42 123 217 40 124 
216 42 124 218 42 123 217 42 123 216 43 124 216 42 122 217 41 121 216 
42 120 217 40 119 217 40 120 217 41 119 217 41 119 217 41 121 218 40 
120 218 39 119 216 40 119 217 40 118 217 42 118 216 41 117 215 41 117 
215 40 115 213 45 105 195 44 108 201 42 109 206 39 112 208 39 113 210 
39 113 212 39 113 212 40 115 211 41 117 215 40 116 214 40 117 213 40 
119 213 44 120 213 45 120 215 48 124 216 49 117 207 52 120 204 59 118 
199 57 113 201 71 130 202 40 57 80 37 54 81 44 56 86 77 128 205 57 85 
125 36 53 62 85 119 173 66 112 183 67 94 146 59 93 151 65 112 186 56 
102 178 62 105 169 56 91 164 53 115 193 50 120 210 46 122 212 43 121 
212 42 121 213 43 122 215 43 122 215 43 122 214 42 123 215 40 124 215 
43 123 216 43 123 215 43 124 216 43 124 215 41 123 215 42 121 216 41 
120 215 41 119 216 39 119 214 41 120 215 41 120 215 40 120 215 40 120 
217 40 120 216 40 119 215 40 118 215 41 118 216 41 117 215 41 117 215 
40 116 214 46 105 197 45 108 203 41 111 207 39 112 209 39 113 210 40 
114 212 40 115 212 40 116 211 41 115 214 41 117 214 41 117 213 41 120 
213 43 123 215 45 121 212 58 126 209 51 103 179 69 120 196 49 75 120 
53 79 113 62 87 120 26 30 36 36 42 54 35 41 58 72 101 151 58 79 114 
34 41 62 84 117 155 65 103 169 60 90 139 75 114 171 67 110 172 63 99 
162 66 94 141 63 105 172 61 112 186 49 113 197 49 124 212 46 123 213 
44 122 213 44 120 214 42 123 214 43 122 214 43 122 214 43 123 215 42 
121 214 44 123 216 42 122 214 43 124 215 42 122 214 41 120 215 41 120 
215 40 120 215 40 120 215 40 119 214 42 121 216 40 120 215 40 119 214 
41 120 213 42 120 214 43 119 215 40 120 215 41 118 214 42 117 213 41 
117 213 46 107 199 44 110 204 41 112 207 40 114 209 38 116 212 40 116 
212 40 115 211 41 116 213 41 116 210 41 118 211 42 119 213 45 120 215 
49 120 214 50 120 199 58 116 193 56 88 150 71 106 170 48 67 93 32 31 
40 35 39 48 40 48 61 46 54 70 37 44 52 48 57 79 58 74 103 44 55 74 88 
137 197 71 103 145 59 89 138 65 94 148 72 123 188 70 99 146 77 114 
170 63 91 151 65 107 176 53 104 184 55 127 212 52 125 214 55 126 213 
49 123 212 47 125 216 43 123 214 45 121 211 44 121 214 41 122 214 42 
121 213 42 121 213 43 121 213 40 123 213 41 121 214 40 119 214 42 121 
214 40 121 213 41 120 215 41 120 215 40 121 214 40 120 215 42 121 216 
42 121 216 44 120 216 43 118 215 42 117 215 42 116 214 42 116 213 45 
108 202 44 110 206 42 112 208 42 114 209 42 117 211 42 115 212 42 116 
213 42 118 212 43 117 212 44 119 213 45 121 215 46 121 215 46 118 204 
60 122 204 53 86 144 61 85 149 63 84 120 32 36 41 22 26 32 21 23 27 
41 45 59 40 46 56 32 34 40 34 39 48 36 43 52 44 50 69 86 137 203 76 
100 145 77 104 143 69 104 158 78 125 173 80 110 159 59 93 142 59 78 
133 58 91 146 46 94 172 60 133 216 61 122 194 59 114 183 58 106 172 
55 130 219 45 124 208 43 122 214 40 122 212 42 121 213 42 121 213 43 
121 213 44 121 213 41 122 212 41 121 213 41 120 214 42 121 214 40 121 
213 41 120 214 41 120 214 40 121 213 41 122 214 41 120 213 41 120 213 
42 118 212 42 118 213 41 117 213 41 115 212 42 116 211 45 109 202 44 
111 206 45 114 208 47 113 204 43 111 202 48 117 209 48 120 214 44 120 
216 44 120 212 44 120 210 45 120 210 49 124 212 56 122 207 56 98 170 
55 89 146 58 78 122 30 36 43 33 36 48 36 34 43 32 35 39 32 35 38 39 
44 46 32 32 42 38 40 47 25 31 36 25 23 28 76 110 169 78 108 160 77 
102 143 66 104 151 66 99 144 68 94 144 67 95 149 72 103 151 72 121 
191 66 120 203 75 140 219 61 95 141 44 62 90 45 63 97 67 132 211 48 
127 213 45 120 214 45 121 211 42 121 213 44 122 214 44 121 213 44 121 
212 43 121 212 43 122 214 43 122 215 42 121 213 42 121 214 41 122 213 
41 122 213 43 122 215 41 122 214 42 121 214 42 121 214 43 119 213 42 
119 213 41 117 212 42 116 212 42 116 211 48 112 204 47 114 208 52 118 
207 46 108 192 46 99 178 57 113 196 42 104 191 56 125 213 52 125 213 
47 115 203 49 113 201 50 113 199 61 127 209 64 108 172 75 115 178 49 
61 86 46 50 56 41 45 48 39 41 45 30 30 38 73 76 80 83 91 90 34 37 48 
50 56 55 40 41 44 30 34 40 70 96 135 81 115 169 82 115 157 69 96 132 
66 81 102 65 90 145 62 89 137 78 118 182 66 114 182 67 118 189 74 122 
184 54 77 118 51 70 112 79 123 192 57 98 148 57 132 214 48 123 212 44 
121 214 43 121 213 44 121 213 45 121 213 45 120 211 44 121 211 44 122 
213 43 122 215 42 121 213 42 121 214 42 123 214 42 123 214 42 121 213 
42 123 214 42 121 213 42 121 213 43 120 212 41 120 212 41 117 211 42 
116 211 43 116 210 53 114 201 53 111 197 54 109 197 56 113 184 44 73 
141 53 103 172 48 84 160 61 125 198 51 112 176 59 120 196 54 103 185 
51 101 176 62 115 190 66 114 182 81 115 163 44 51 64 77 81 78 36 38 
40 23 24 28 20 21 24 19 19 25 20 24 27 25 27 34 20 23 25 38 40 43 28 
29 32 47 60 74 76 109 168 74 93 136 57 74 97 81 123 185 76 118 169 66 
89 134 63 92 148 69 107 167 73 102 162 59 80 115 45 55 75 61 82 116 
53 71 101 43 61 85 71 138 218 48 128 208 46 121 211 44 121 212 43 122 
213 43 123 213 44 121 212 44 122 213 43 121 213 42 121 213 42 121 213 
43 122 214 42 122 212 43 122 213 42 121 213 41 122 213 41 122 214 41 
120 213 41 119 212 43 119 213 41 117 211 42 117 211 43 117 212 48 94 
173 51 101 180 56 106 178 55 90 159 49 82 150 60 95 164 52 79 151 45 
75 125 52 82 142 71 114 180 61 100 169 65 107 164 61 97 158 65 99 158 
39 51 82 19 22 25 23 27 34 29 33 38 30 32 37 36 36 45 39 40 47 44 47 
60 48 54 67 36 40 52 23 25 30 21 23 30 42 49 52 94 130 167 72 99 139 
52 72 105 82 136 209 73 109 154 78 116 168 80 121 188 77 117 167 72 
102 145 45 58 83 45 50 63 44 63 83 66 84 112 46 53 77 63 112 152 60 
130 218 46 125 213 45 122 212 43 123 212 43 123 212 46 123 213 46 123 
213 45 122 212 44 122 213 43 121 212 43 122 214 43 123 213 43 123 212 
43 122 214 43 121 213 43 121 213 44 120 213 43 119 212 42 119 211 43 
118 211 42 117 210 43 118 211 56 115 196 56 94 166 59 96 160 60 99 
170 56 89 160 48 78 121 74 129 210 76 131 205 60 103 156 43 66 104 50 
77 119 55 71 128 80 116 167 70 95 146 57 74 112 33 37 44 43 47 54 31 
34 42 32 36 43 38 40 49 47 48 60 34 37 47 59 67 92 39 42 53 41 44 50 
26 29 35 23 22 24 48 55 74 67 87 115 70 97 150 82 132 187 68 100 136 
75 117 166 66 94 144 78 104 143 58 74 96 51 64 85 42 49 68 61 71 96 
94 114 124 56 75 98 53 68 94 68 141 218 54 126 210 44 124 211 45 122 
210 46 123 211 45 125 212 46 123 212 46 123 212 45 123 213 44 123 212 
44 121 213 44 121 211 44 121 211 45 122 213 44 121 212 44 120 212 44 
119 212 43 118 211 43 118 211 43 118 211 43 118 211 44 118 211 62 105 
179 66 107 174 52 86 153 51 75 127 58 90 153 44 64 120 78 136 209 60 
101 163 44 63 100 43 56 88 41 46 72 76 111 174 71 102 164 75 102 149 
43 55 76 34 35 42 34 37 45 45 47 62 42 46 62 43 49 60 49 51 62 44 45 
60 45 54 75 34 35 41 33 34 41 20 20 20 22 29 36 26 25 27 23 24 30 58 
74 99 83 110 138 87 122 170 86 126 184 83 113 161 67 88 120 95 109 
112 104 122 140 65 87 127 84 108 135 82 91 111 56 70 95 51 57 72 64 
117 168 56 131 215 45 125 211 45 123 210 47 124 211 45 125 211 45 124 
211 45 124 211 43 123 210 43 123 210 45 122 213 44 121 211 43 120 210 
44 121 212 43 120 210 44 120 210 44 119 211 43 118 211 43 118 209 44 
118 210 44 117 209 43 116 208 64 101 170 49 76 131 53 79 137 59 88 
153 48 71 112 63 94 161 80 142 208 58 87 138 53 80 126 44 57 83 28 32 
41 71 92 137 57 74 109 63 82 118 26 28 30 32 37 42 31 34 40 32 36 44 
46 49 61 37 41 54 38 44 54 50 56 73 52 55 74 33 35 46 26 26 31 23 23 
27 24 24 29 27 29 33 20 21 24 27 29 36 27 30 34 69 91 120 90 125 180 
73 96 124 40 46 74 50 64 102 52 70 116 63 76 115 66 78 116 62 78 119 
57 74 113 55 63 98 51 72 97 71 141 220 49 127 209 45 124 212 47 125 
209 48 125 211 50 125 212 45 122 215 44 124 208 44 124 210 46 122 210 
45 122 211 42 121 210 43 119 210 44 119 211 44 121 212 43 120 211 44 
119 211 44 119 211 45 118 210 46 116 209 45 116 208 63 101 166 45 73 
122 50 71 122 57 88 139 45 65 100 73 116 191 59 88 128 26 35 46 42 55 
81 48 63 83 34 45 56 53 67 101 76 97 133 66 77 104 27 32 45 32 31 39 
32 32 40 35 36 41 40 42 53 37 39 50 38 42 49 38 42 50 38 40 55 35 37 
40 26 30 37 29 32 40 34 36 47 37 40 54 13 21 21 33 40 47 38 39 52 36 
42 52 48 57 70 63 77 97 48 61 81 52 63 83 50 56 69 37 41 50 35 38 45 
33 39 47 37 41 49 24 28 36 37 45 63 66 113 163 57 131 217 47 126 210 
52 128 215 55 114 173 58 134 213 51 126 210 44 123 213 48 122 209 46 
122 209 45 121 209 44 120 210 45 119 210 45 120 210 45 121 211 43 120 
209 44 120 209 44 120 211 43 118 209 44 117 208 43 116 207 62 91 160 
81 123 197 64 107 173 66 102 152 29 43 66 75 107 151 63 84 120 59 84 
125 110 138 154 52 65 89 36 47 45 33 37 44 60 79 109 56 67 86 30 33 
36 31 34 40 31 31 35 34 31 27 38 40 45 28 29 33 30 33 40 38 41 53 38 
41 52 26 28 35 32 35 44 31 33 40 23 26 31 26 30 35 18 14 20 28 29 28 
19 20 24 22 23 25 22 25 26 26 25 33 41 42 48 38 41 49 34 38 43 38 41 
50 42 45 59 49 52 67 54 58 75 54 59 80 31 36 43 53 75 96 66 140 213 
57 131 217 65 139 212 51 76 117 65 117 178 58 132 211 50 124 210 44 
124 210 46 123 208 45 121 208 45 119 208 45 120 209 45 119 208 45 121 
209 45 121 209 45 120 208 45 119 209 44 119 208 43 118 207 44 118 207 
51 79 135 53 81 151 69 108 170 78 123 188 58 83 118 58 65 80 63 79 
107 49 64 86 51 65 98 35 39 49 43 46 47 47 56 79 69 93 107 40 44 56 
37 48 62 45 50 67 49 50 60 35 29 28 37 39 47 35 35 43 33 36 41 35 39 
46 52 55 68 33 37 44 20 20 25 24 24 28 28 28 33 30 31 38 17 20 21 35 
34 45 29 32 40 31 34 40 38 41 50 35 37 44 43 50 62 47 49 63 48 51 63 
46 50 67 47 53 71 53 58 74 49 63 85 56 65 86 54 56 75 24 27 34 77 127 
179 73 141 219 73 119 172 53 70 98 42 53 67 71 137 205 53 125 211 48 
123 207 45 121 207 44 120 206 44 120 207 43 120 208 44 118 207 45 120 
208 45 120 208 45 119 208 46 118 207 44 118 207 45 119 208 45 116 206 
61 88 144 41 57 103 74 110 171 67 97 141 36 46 58 33 41 53 55 65 94 
39 50 67 44 53 73 32 39 48 17 21 23 25 28 32 14 11 15 12 15 17 44 48 
71 47 55 73 34 34 37 36 28 24 25 27 30 27 29 36 30 31 36 28 32 36 46 
48 62 31 34 41 29 30 33 32 35 47 40 43 51 31 31 35 26 27 32 44 49 67 
54 60 79 39 44 55 40 43 54 40 41 53 40 44 54 47 53 71 46 49 71 44 49 
63 41 46 63 55 59 80 50 59 79 57 65 90 49 51 66 41 42 54 17 19 22 82 
133 184 75 98 127 43 43 44 49 47 52 61 111 159 57 127 210 46 123 209 
46 121 208 46 122 208 46 121 207 47 119 209 45 119 209 45 120 207 45 
121 208 44 120 209 46 117 208 48 118 207 45 113 201 48 117 203 45 62 
94 52 63 110 87 127 202 77 113 174 34 45 53 30 35 49 35 41 51 44 48 
63 47 52 68 23 27 36 27 30 36 29 32 41 34 35 42 44 49 63 51 59 80 49 
58 79 44 43 48 36 30 29 23 24 27 33 34 41 33 36 43 26 31 37 43 48 63 
34 38 47 32 34 40 39 41 53 35 38 46 25 26 31 38 39 45 51 54 76 36 43 
52 42 46 56 41 46 60 40 46 52 51 54 68 51 54 74 49 53 73 53 62 91 57 
68 102 54 61 83 57 64 86 56 64 90 52 55 80 55 60 75 40 43 53 36 36 38 
92 92 113 66 53 43 48 45 46 71 116 166 59 129 208 51 120 206 47 121 
207 46 121 206 46 120 206 47 119 207 48 118 206 46 117 203 46 117 204 
44 116 203 47 115 205 48 115 205 49 112 199 45 106 188 14 13 14 11 12 
11 19 22 28 53 69 117 36 46 59 26 29 34 36 37 51 38 38 49 36 39 45 23 
23 28 28 30 34 36 40 45 30 29 36 37 42 54 52 57 76 39 43 54 38 42 53 
32 34 40 32 35 43 34 38 49 28 30 37 34 38 44 42 45 59 42 45 54 32 36 
43 36 40 51 45 48 56 25 28 36 38 39 47 49 51 70 27 32 37 36 38 47 57 
61 83 38 45 58 45 50 63 48 51 65 49 50 66 47 55 72 51 60 81 50 55 72 
52 59 82 56 64 87 58 62 85 52 56 74 55 54 67 60 54 52 174 107 64 141 
78 41 59 48 41 63 96 133 60 131 208 48 122 209 48 120 204 47 121 206 
44 118 203 46 118 203 47 117 203 48 118 204 47 117 203 48 118 204 46 
117 204 50 119 205 54 114 196 53 103 180 13 13 14 11 13 15 15 17 20 
49 61 102 34 44 53 28 32 36 29 32 43 32 36 43 32 35 42 28 29 37 27 29 
37 34 37 45 26 28 32 41 47 62 36 42 52 30 34 39 36 40 50 32 37 44 26 
28 33 38 41 51 26 24 33 25 26 30 42 43 54 24 25 28 33 37 44 38 42 53 
40 43 51 33 35 48 33 35 45 41 43 54 33 36 44 38 41 48 47 52 66 48 54 
74 49 56 72 50 54 71 49 54 69 45 49 61 49 53 68 50 56 70 54 60 82 52 
60 80 46 50 63 56 59 76 52 47 57 70 60 65 175 107 55 140 75 43 56 48 
46 60 85 107 71 137 212 54 127 207 52 122 206 49 121 206 47 121 206 
49 121 205 48 121 205 48 119 205 47 118 204 48 118 203 47 117 202 54 
119 203 58 109 188 57 93 165 15 15 15 13 12 10 11 10 17 48 63 93 28 
32 39 28 32 36 32 37 47 29 36 45 37 42 53 31 33 42 37 39 52 40 47 61 
41 47 62 28 34 39 30 33 41 33 35 41 23 23 24 29 29 34 17 19 18 28 28 
34 29 28 34 25 28 31 35 38 46 29 32 37 26 28 32 32 35 39 44 48 60 22 
27 30 27 31 36 32 34 41 45 53 66 33 37 43 43 47 57 45 49 68 51 54 69 
45 48 59 42 46 53 41 45 56 39 42 53 44 46 58 47 57 70 52 58 81 50 52 
64 50 52 65 53 55 63 57 55 60 60 51 50 60 53 54 40 37 40 51 66 79 72 
127 195 55 131 209 53 124 204 50 123 204 49 121 208 50 121 206 49 119 
205 48 119 204 47 119 203 49 119 203 56 121 203 62 124 207 64 114 187 
61 89 152 13 10 12 11 12 10 11 17 18 67 90 141 30 33 40 33 40 53 45 
54 70 53 59 78 54 61 79 26 34 41 29 35 40 26 30 35 34 39 47 41 45 54 
35 36 46 30 31 32 18 20 23 29 33 37 24 28 31 29 29 35 29 30 32 32 36 
39 41 44 53 31 34 39 27 29 35 38 41 53 33 38 47 36 39 52 27 28 36 39 
40 48 47 50 63 42 43 57 46 51 64 41 45 58 53 64 89 44 47 63 45 52 66 
44 48 70 49 56 71 59 69 95 68 88 132 51 55 71 39 44 55 44 46 50 45 45 
49 47 46 49 43 38 37 43 42 44 34 35 37 57 71 89 74 134 192 63 118 186 
52 127 202 53 126 208 55 127 204 60 126 208 57 128 207 54 125 203 57 
124 203 63 127 207 67 115 179 59 94 134 58 78 124 51 55 83 11 12 13 
17 15 19 24 24 30 57 74 104 26 29 34 34 38 49 30 35 40 33 35 48 46 52 
77 32 38 48 25 28 35 34 35 43 31 34 41 48 51 67 41 43 56 25 25 30 25 
25 28 25 27 27 24 25 31 27 28 34 29 30 35 36 40 49 50 54 69 33 36 45 
25 28 34 33 36 48 28 33 42 34 38 51 22 23 26 40 43 51 40 43 51 39 42 
52 45 51 68 41 45 57 52 59 79 49 55 75 44 51 70 46 55 71 51 61 88 50 
64 82 51 76 77 52 54 68 47 51 62 42 45 49 43 43 45 44 43 44 46 42 40 
34 34 36 41 40 39 53 62 78 82 124 182 75 137 206 82 136 209 80 141 
212 83 135 204 70 104 153 74 100 135 82 134 202 89 136 201 75 90 118 
48 39 44 58 51 50 48 34 36 27 26 20 22 23 31 11 10 11 11 10 12 50 66 
96 39 48 70 31 37 44 30 32 43 26 31 39 37 41 57 32 31 34 51 48 54 31 
34 44 30 33 38 47 51 64 38 43 50 28 30 35 84 79 75 36 34 32 21 20 26 
28 28 32 22 23 26 36 42 50 46 51 67 34 37 45 26 28 33 30 33 37 30 34 
47 45 49 53 21 24 29 58 65 82 35 38 52 40 47 56 51 57 75 36 41 54 41 
36 38 54 62 84 48 53 76 44 57 80 50 62 85 53 59 74 52 58 67 47 50 61 
46 45 52 39 44 50 42 43 47 38 37 38 48 43 39 37 35 34 49 43 45 63 59 
63 92 108 155 91 111 156 74 82 105 89 84 102 68 58 72 66 65 89 66 70 
103 84 92 122 56 62 82 49 47 56 42 40 47 20 22 18 18 13 14 24 21 23 
25 31 43 42 52 68 19 24 34 57 70 107 37 41 37 26 29 35 38 49 67 35 35 
42 45 44 58 66 63 67 61 58 67 37 42 52 41 48 60 41 46 53 36 39 48 31 
33 41 15 15 22 25 25 26 24 30 36 36 37 47 21 25 31 47 47 60 44 51 62 
37 39 51 30 31 35 36 37 48 10 11 9 38 42 49 17 17 20 38 46 60 48 51 
67 41 48 65 57 66 94 49 58 74 46 63 78 51 58 79 52 60 79 57 64 89 50 
58 78 54 63 81 54 56 71 47 48 58 41 42 48 40 41 46 40 41 46 34 35 37 
35 35 37 34 33 36 34 37 37 34 40 40 59 59 78 72 77 100 62 85 125 59 
62 86 49 58 81 63 75 109 45 51 66 37 41 59 43 47 56 31 32 39 30 26 26 
40 36 45 22 20 24 22 18 18 23 22 29 14 15 18 29 31 40 26 35 39 33 40 
53 27 35 40 32 36 50 45 52 68 51 57 76 32 40 51 39 39 55 36 42 62 49 
69 108 55 76 111 50 60 94 26 34 44 57 71 101 47 57 79 54 61 85 48 62 
83 46 50 61 41 41 55 33 40 50 29 30 37 31 37 44 38 43 49 16 15 19 18 
19 22 12 9 13 47 57 68 45 53 74 42 48 71 48 58 77 87 94 97 77 102 111 
48 55 77 46 54 70 52 58 79 46 50 65 44 45 61 37 40 48 35 37 43 42 43 
48 30 31 35 40 38 45 33 31 35 27 26 28 33 32 32 36 30 36 36 43 47 69 
58 76 79 70 82 71 87 113 49 53 74 47 53 70 38 41 55 41 45 63 25 29 33 
38 39 44 46 43 53 117 76 81 94 57 63 24 18 20 20 24 22 17 17 19 13 20 
23 14 10 11 21 24 36 32 38 44 30 32 42 33 33 47 41 51 66 47 58 81 33 
43 58 41 55 86 70 95 149 71 114 180 54 83 121 39 55 86 74 106 151 41 
49 70 35 48 71 32 31 36 26 29 40 46 32 21 30 31 36 32 33 38 63 75 108 
25 23 28 28 29 34 12 12 15 19 21 24 7 9 8 44 50 66 66 80 118 38 46 63 
49 54 76 38 40 53 43 48 60 42 47 57 34 36 52 38 41 57 34 40 49 37 42 
50 40 43 47 42 45 51 40 42 47 29 30 33 38 41 46 37 37 43 30 27 31 42 
36 38 32 38 42 37 44 49 71 80 107 49 52 62 65 75 103 54 58 84 33 37 
39 36 35 39 63 65 80 27 28 31 28 28 29 23 22 21 16 9 7 92 89 88 139 
134 138 40 44 42 79 135 192 82 118 197 89 142 204 60 93 124 23 29 39 
16 19 17 35 48 66 38 51 75 43 68 107 65 114 186 64 128 208 61 131 211 
58 121 200 58 111 175 67 134 215 70 136 216 63 106 161 36 48 69 48 68 
95 38 54 85 78 64 66 46 50 71 26 28 35 21 22 32 26 29 44 36 41 60 17 
19 17 6 6 7 13 10 15 52 65 88 33 38 55 31 40 49 54 65 94 45 57 80 40 
46 60 51 56 81 42 51 72 51 59 88 44 51 71 38 41 51 32 35 41 41 44 53 
44 46 54 30 31 33 42 44 50 35 37 44 33 36 41 27 29 32 88 60 65 51 54 
65 50 53 70 33 34 40 55 66 86 33 39 50 41 40 54 22 24 24 52 54 53 34 
33 40 36 36 40 33 34 38 42 46 64 66 70 79 77 73 77 25 25 25 55 98 142 
42 59 93 50 70 106 25 28 38 21 25 26 30 40 57 45 74 122 66 128 212 59 
134 217 54 130 216 51 128 216 49 129 214 52 123 204 55 125 210 57 126 
209 56 131 216 66 137 218 43 73 107 58 89 135 57 96 157 63 109 179 78 
136 210 81 138 209 90 141 203 99 150 217 85 118 162 13 14 17 10 7 8 
27 32 41 64 93 134 56 87 126 51 69 95 59 81 119 40 54 75 62 79 115 47 
57 80 48 54 69 37 40 50 40 48 65 66 83 120 86 112 162 51 67 93 47 54 
68 33 38 43 65 82 112 67 84 128 63 81 122 75 100 154 75 91 139 62 79 
110 72 92 145 76 98 146 70 82 123 74 82 122 74 83 121 68 83 131 69 77 
111 29 32 44 18 15 22 77 50 57 38 37 47 40 40 52 33 37 42 40 42 53 49 
96 152 32 44 64 29 44 64 32 41 59 64 96 139 14 18 23 68 126 207 56 
131 214 51 126 215 49 126 216 48 126 216 48 128 215 47 122 206 49 116 
201 40 101 181 54 130 215 63 136 216 35 61 85 65 107 162 68 130 203 
74 140 218 67 120 193 39 54 98 44 63 105 55 78 132 51 69 102 17 14 13 
47 73 107 46 72 108 60 110 178 71 127 199 67 100 150 78 135 209 78 
129 205 67 109 169 71 106 159 65 89 129 45 60 87 64 82 113 81 111 157 
85 114 159 79 102 140 87 104 138 78 95 123 108 127 172 101 120 171 91 
106 144 86 99 138 73 86 118 74 82 112 66 76 108 64 68 105 58 68 102 
63 75 119 61 77 124 63 81 128 63 86 138 72 92 145 75 92 139 43 45 63 
19 19 19 18 17 22 58 60 74 91 114 152 55 122 202 74 129 216 67 109 
155 44 49 78 87 136 208 12 17 29 69 129 214 47 115 209 42 114 205 43 
115 207 43 116 206 41 116 204 48 115 208 44 119 200 51 118 206 52 118 
203 62 125 202 28 45 63 63 100 155 61 119 188 61 104 163 61 114 176 
66 129 202 67 122 200 68 124 193 64 107 171 20 26 41 75 112 174 69 
126 202 65 122 200 65 123 198 62 92 136 70 126 200 72 124 191 80 136 
206 88 138 205 86 129 191 96 131 192 66 84 132 48 53 70 49 51 62 48 
50 62 50 50 60 54 53 64 60 55 65 64 56 69 86 60 64 110 68 68 110 77 
79 97 79 100 88 82 108 77 82 115 71 88 138 65 89 142 64 89 148 67 89 
150 66 85 133 62 66 97 53 53 61 57 61 67 61 61 71 54 58 71 73 96 129 
49 67 94 52 109 198 58 118 197 60 97 154 36 50 83 77 124 194 18 20 35 
65 127 211 47 115 202 45 111 199 43 109 196 42 109 197 42 109 196 42 
107 194 43 107 194 50 107 196 52 113 193 68 116 189 33 46 70 66 84 
132 67 93 145 53 75 110 67 99 157 77 124 200 64 121 195 64 118 197 63 
121 195 68 117 188 64 111 185 68 116 191 65 122 197 75 120 191 65 107 
171 72 114 175 68 102 164 63 86 137 68 93 151 66 95 148 62 86 125 59 
72 107 55 63 82 56 59 74 55 59 74 59 63 71 66 65 78 80 67 76 120 72 
68 152 78 66 146 78 67 127 80 79 109 85 97 98 90 123 85 89 143 74 88 
149 69 88 143 66 83 133 59 72 107 52 53 68 52 56 66 55 58 68 55 58 73 
52 59 73 60 72 99 73 101 158 70 101 164 49 104 190 54 110 193 71 118 
181 33 40 62 72 107 173 16 19 31 64 116 199 47 110 193 47 108 194 46 
110 196 46 111 197 47 112 197 50 113 198 55 117 196 62 122 202 70 122 
191 53 96 148 46 90 135 36 45 65 33 46 57 39 47 67 38 38 45 59 53 79 
66 65 108 78 117 185 70 114 182 72 115 183 74 111 180 71 110 170 66 
102 160 68 97 153 63 87 132 58 73 113 51 62 93 48 54 74 41 43 58 42 
46 57 46 50 62 49 53 65 51 55 68 51 55 68 56 58 73 62 62 75 77 70 83 
94 73 83 113 73 69 138 71 62 151 79 62 146 81 75 117 85 96 94 84 118 
80 81 120 69 80 118 66 75 115 57 65 89 43 46 53 49 54 62 49 49 61 56 
59 76 47 52 68 58 76 110 77 115 176 64 103 170 66 109 183 53 101 184 
56 106 188 70 116 182 34 46 75 59 97 169 49 85 142 53 107 188 52 109 
196 51 111 195 52 113 197 53 114 195 56 115 193 57 121 200 71 104 165 
67 76 119 66 44 67 58 38 59 50 37 48 44 42 59 22 11 14 19 10 8 12 3 8 
9 3 5 12 8 9 81 106 166 67 94 144 57 76 114 53 59 91 48 50 74 39 41 
54 35 38 50 40 44 54 40 47 58 42 48 59 44 50 61 45 51 62 48 52 64 49 
52 65 51 54 68 52 55 70 58 61 77 63 64 82 70 69 85 80 71 85 104 75 80 
141 74 64 173 85 55 180 86 52 147 81 73 112 84 96 87 86 107 77 79 112 
64 67 93 48 49 60 45 46 51 50 51 61 58 61 78 50 58 72 52 56 71 59 71 
109 76 112 174 73 118 196 63 104 181 63 102 181 58 109 193 62 112 194 
71 117 182 34 46 77 64 103 177 65 119 200 63 115 193 56 106 187 53 95 
168 50 94 170 57 102 178 60 106 178 84 108 161 68 54 61 79 49 56 128 
109 95 37 16 12 18 17 21 9 6 6 5 3 5 4 3 6 8 6 3 17 15 16 23 22 25 32 
37 43 33 35 44 34 37 45 32 37 43 34 42 48 39 44 50 43 47 56 45 50 55 
47 48 60 48 50 62 50 53 65 48 54 64 51 55 67 53 56 69 53 56 71 56 59 
74 57 61 78 61 62 82 68 66 83 84 70 84 112 75 73 152 76 62 168 83 53 
145 74 65 126 78 79 111 83 95 102 90 121 77 79 104 42 46 56 45 47 56 
54 55 71 49 54 66 50 55 70 57 68 97 57 69 100 52 80 116 71 109 178 61 
105 180 64 108 183 60 103 181 57 97 171 59 100 173 63 105 166 36 50 
81 62 94 164 64 108 179 59 108 182 66 114 183 72 124 196 72 120 194 
75 118 187 68 106 169 64 94 141 16 18 26 7 0 2 9 5 6 7 4 4 25 27 33 9 
10 14 6 5 6 12 10 11 16 16 20 16 22 22 37 42 57 42 50 64 45 52 66 46 
51 64 41 44 54 39 41 49 40 46 51 40 47 58 43 51 61 46 54 61 47 53 64 
47 53 66 46 51 63 50 54 65 51 55 67 52 56 69 53 56 71 54 58 75 63 64 
84 71 69 85 88 73 84 123 75 79 138 77 70 126 73 69 133 78 74 132 83 
88 112 88 105 76 70 91 55 58 77 47 50 60 53 59 71 63 68 94 54 58 78 
59 66 90 55 64 90 61 85 129 75 111 176 69 112 189 60 106 182 60 108 
183 69 115 192 67 100 179 67 107 178 75 110 178 49 73 121 57 84 141 
52 78 128 49 68 109 46 65 100 46 56 88 40 47 69 37 41 56 38 41 55 39 
43 58 28 31 37 21 25 32 37 43 61 41 51 78 46 64 92 60 76 111 72 94 
134 71 94 135 68 84 119 54 62 84 39 44 51 35 39 48 37 41 48 40 45 51 
42 47 52 42 50 58 42 50 57 44 50 60 46 50 61 47 51 62 48 52 64 47 53 
65 48 54 66 47 53 65 49 55 67 53 57 69 55 59 71 57 60 76 59 60 75 74 
65 82 95 76 87 112 77 84 120 81 78 129 84 86 133 86 89 112 81 91 70 
63 77 60 60 75 50 51 61 50 54 68 57 61 82 48 54 67 52 55 75 55 67 94 
58 79 117 73 109 169 69 110 182 64 108 184 59 102 181 60 103 180 62 
103 175 49 78 126 46 74 120 49 77 119 51 80 123 55 90 132 49 74 116 
51 85 124 55 81 118 49 69 99 53 79 114 55 84 126 56 83 130 72 103 161 
66 96 149 78 107 167 84 115 176 73 96 145 64 82 117 44 51 69 37 38 45 
35 36 45 34 39 43 36 42 44 41 44 49 43 47 56 42 46 54 40 45 51 39 44 
50 40 45 54 42 47 56 45 49 60 46 50 61 47 51 62 49 53 65 47 53 65 47 
53 65 47 53 65 48 53 65 49 53 65 51 54 66 57 59 78 68 69 85 79 74 94 
89 77 93 94 82 94 88 71 83 70 60 71 46 49 55 40 44 50 45 43 52 47 53 
66 56 61 83 56 69 93 59 71 98 60 64 97 50 59 80 57 73 111 65 95 143 
74 118 186 63 109 182 63 110 183 63 105 179 66 103 174 65 98 164 63 
104 175 63 108 182 61 102 164 60 95 155 62 101 171 69 132 208 76 132 
210 81 135 213 84 137 213 90 138 209 82 122 185 77 108 164 69 96 138 
54 67 96 40 45 53 39 45 50 38 42 47 37 40 45 36 41 47 35 38 46 35 40 
46 39 40 48 40 40 49 37 40 49 40 45 51 40 44 52 40 44 53 41 45 54 43 
47 56 44 48 57 47 51 62 47 53 63 45 52 62 47 53 65 48 52 64 48 52 64 
48 53 65 52 56 68 54 58 70 57 59 72 60 61 77 61 61 76 63 62 79 59 57 
72 48 50 58 41 47 52 49 55 64 50 52 73 53 52 66 63 69 96 64 84 120 61 
79 119 56 72 107 68 93 135 56 74 114 70 105 155 82 121 183 74 117 181 
68 114 184 65 107 174 69 110 178 67 103 171 65 95 158 63 90 148 76 
124 201 70 116 189 71 119 190 73 123 201 66 106 170 61 91 150 52 75 
121 47 62 94 39 47 67 34 38 52 35 39 48 36 43 51 38 44 53 40 48 55 42 
47 55 49 49 58 41 48 55 42 45 51 36 43 48 39 40 47 37 41 48 38 44 48 
39 45 50 41 45 52 41 46 52 41 46 54 45 49 58 45 49 59 45 49 58 44 50 
58 43 50 60 43 51 60 43 50 60 44 50 62 49 53 65 47 51 63 48 52 64 46 
50 62 47 49 62 51 53 66 54 57 69 51 53 62 51 52 64 44 48 56 51 58 71 
59 65 89 52 65 92 66 85 119 63 81 120 65 92 138 70 96 149 72 106 156 
73 110 169 82 126 185 52 75 126 75 116 171 79 122 194 61 99 164 61 
100 165 61 98 161 61 93 156 63 90 153 61 86 146 62 87 143 46 61 101 
48 62 96 42 51 74 32 34 47 33 37 46 33 40 50 34 41 51 37 41 53 39 45 
57 40 46 58 40 46 58 42 48 60 42 47 58 40 44 54 40 45 50 42 47 51 39 
40 48 36 40 46 36 41 47 37 40 48 39 43 52 41 45 52 40 45 52 43 47 56 
45 49 58 46 50 59 44 48 57 44 48 57 44 48 59 48 52 63 46 50 62 46 50 
62 46 50 61 44 49 61 43 47 59 43 45 56 41 48 56 45 47 57 45 48 59 46 
50 57 40 45 51 43 49 54 48 54 62 55 62 84 63 75 106 51 65 93 73 92 
138 69 95 146 69 89 141 62 88 135 72 100 153 74 109 166 69 110 175 77 
118 179 63 91 151 66 102 157 64 98 160 61 101 165 65 100 163 67 101 
164 66 97 157 64 94 154 68 97 160 63 93 152 40 40 55 37 40 55 36 39 
50 34 37 45 36 40 49 37 44 54 39 46 56 42 46 58 42 49 59 40 47 57 41 
48 58 41 48 58 43 46 58 43 47 58 40 44 54 40 45 54 40 44 52 40 44 53 
42 46 55 41 45 54 42 46 55 41 45 54 43 47 56 42 46 55 42 46 55 43 47 
56 42 46 55 41 45 54 40 44 54 40 44 54 39 43 53 41 45 56 41 44 56 40 
43 54 39 42 52 41 44 52 42 44 56 44 49 57 41 45 52 41 45 54 42 49 62 
51 56 72 63 80 120 76 105 155 59 74 109 66 91 133 68 102 158 74 111 
166 60 84 131 65 97 145 74 115 174 65 110 173 68 114 178 74 110 174 
53 82 135 67 105 167 63 104 169 71 112 181 65 100 164 63 96 153 67 97 
159 63 92 152 63 90 153 61 88 147 40 44 53 39 42 53 39 41 53 39 39 53 
38 42 51 37 44 54 38 45 55 40 44 56 42 46 57 42 46 57 42 46 57 42 46 
57 43 46 58 45 49 60 45 49 60 45 51 61 44 48 58 43 47 56 42 45 53 39 
44 51 42 45 53 41 44 52 37 40 49 35 38 46 36 39 47 37 40 48 36 39 47 
35 38 46 34 37 46 37 40 49 39 42 50 37 40 48 37 40 49 37 40 49 38 41 
50 42 46 54 43 47 52 38 47 56 46 53 67 54 67 95 73 102 145 84 118 179 
70 98 144 62 81 121 63 91 137 77 121 183 77 125 194 74 113 172 61 89 
141 69 96 149 78 119 180 70 115 184 70 114 182 60 95 151 64 95 154 70 
108 172 67 107 175 67 107 175 67 100 162 65 97 155 64 93 155 67 93 
152 68 92 153 65 90 148 40 42 55 39 41 54 37 41 52 35 41 51 37 41 50 
37 44 54 39 46 56 43 47 59 44 48 60 43 47 59 44 48 60 43 47 59 42 47 
58 45 49 60 43 47 58 43 47 56 40 45 53 39 41 50 37 38 45 34 37 42 34 
37 42 34 37 44 35 38 45 34 37 42 33 36 41 32 35 41 34 37 42 34 37 43 
33 36 45 33 36 43 32 35 41 35 38 43 37 41 49 39 42 49 38 42 51 41 47 
58 55 77 108 65 88 129 63 86 130 88 131 187 83 119 177 55 80 120 62 
83 127 61 92 137 65 107 161 64 109 175 65 115 189 70 123 202 67 108 
167 63 89 143 67 105 162 66 112 179 61 102 167 71 106 169 60 97 152 
70 108 174 62 98 163 65 101 161 65 96 153 64 95 157 62 91 148 64 90 
144 61 86 144 65 93 150 39 42 52 39 42 53 36 40 51 37 41 51 38 42 53 
38 42 53 39 43 54 40 44 55 41 45 56 40 44 54 40 44 54 40 44 56 39 43 
53 38 42 51 38 41 50 37 40 47 37 38 43 38 39 45 34 35 41 34 35 40 32 
31 37 32 33 38 30 31 36 31 31 37 31 31 37 30 33 37 32 32 38 30 33 39 
33 33 40 34 39 43 39 40 49 37 41 47 37 43 47 40 45 55 55 76 110 80 
120 178 92 134 196 62 87 135 74 108 159 78 109 171 58 82 129 67 92 
143 66 99 157 73 125 193 67 119 195 65 116 198 60 116 196 66 112 190 
68 112 181 56 87 141 65 94 150 72 112 176 74 115 183 66 99 162 59 86 
142 72 115 178 71 111 176 71 104 167 71 103 163 70 96 160 66 96 157 
67 98 153 65 91 151 65 87 143 37 40 49 38 40 52 37 39 51 36 40 49 36 
40 51 37 41 52 37 41 52 37 41 52 37 41 52 37 41 52 38 42 52 45 49 60 
37 41 50 35 39 48 36 39 46 37 40 47 37 38 42 31 32 37 29 30 35 27 28 
33 27 28 33 28 29 34 29 30 35 30 30 35 31 29 37 27 31 36 28 28 33 28 
30 35 34 39 46 38 41 50 35 41 47 49 65 90 58 80 123 76 118 177 74 124 
189 77 123 188 81 120 183 67 86 134 82 112 176 60 92 139 76 108 166 
61 100 157 74 129 201 64 119 201 63 117 195 59 117 196 57 106 185 59 
107 184 64 111 183 73 106 172 67 100 158 67 102 152 72 107 168 69 107 
172 66 98 161 76 114 181 71 104 164 71 100 159 62 92 151 69 96 158 70 
94 148 66 91 152 68 96 150 68 96 151 35 36 45 35 37 46 33 36 45 32 35 
44 32 35 44 33 36 45 33 36 45 33 36 45 34 37 46 36 39 49 34 38 47 44 
47 56 35 38 46 34 37 44 35 37 44 35 36 42 33 34 38 30 31 35 29 30 35 
29 30 35 27 29 34 24 25 30 21 22 27 21 22 27 23 26 27 27 30 36 31 29 
38 34 37 39 40 48 57 60 80 113 64 92 134 69 103 156 74 122 188 68 121 
194 71 119 189 71 111 177 65 92 145 56 78 122 63 89 142 75 103 165 60 
98 151 70 122 195 58 111 188 59 116 191 57 108 186 59 113 189 62 110 
187 60 111 186 67 116 195 69 117 183 75 109 172 68 97 156 66 93 143 
71 108 169 70 103 164 70 103 165 63 91 150 56 79 135 64 90 143 65 89 
144 60 83 130 64 87 144 68 94 151 71 99 161 33 33 41 31 31 41 30 31 
41 29 32 39 31 34 43 32 35 44 35 38 47 35 38 47 34 36 44 35 36 46 33 
34 44 35 36 45 33 36 43 33 34 42 33 34 40 32 33 38 32 33 38 31 32 37 
30 31 36 27 28 33 23 26 30 26 27 31 31 32 36 36 39 42 41 45 55 41 44 
46 48 56 73 64 88 131 78 109 171 75 112 165 71 111 174 72 122 195 64 
117 194 62 119 198 64 119 197 72 115 183 58 82 130 67 94 147 74 112 
170 65 98 161 69 115 190 65 117 193 60 116 198 61 112 194 66 115 191 
65 110 185 59 112 184 62 114 189 65 114 188 69 115 189 74 107 175 56 
74 125 58 78 132 81 111 174 66 93 153 69 98 158 70 96 160 67 88 145 
61 83 132 61 80 126 62 83 127 57 76 113 60 77 121 58 76 118 